<?xml version="1.0" encoding="UTF-8"?><svg id="Layer_2" xmlns="http://www.w3.org/2000/svg" viewBox="0 0 330 330"><defs><style>.cls-1{fill:none;}.cls-2{fill:#fff;}</style></defs><g id="Layer_6"><path class="cls-2" d="m177.08,215.42c-4.83,0-8.77-3.93-8.77-8.77v-26.31c0-.89-.3-1.76-.84-2.47l-.22-.28-3.45,6.62c-3.23,6.21-9.59,10.06-16.59,10.06-2.41,0-4.78-.46-7.02-1.37l-31.72-12.87-15.14,9.12c-.96.58-2.03.86-3.09.86-1.35,0-2.7-.46-3.8-1.35-1.96-1.6-2.71-4.26-1.86-6.65l11.08-31.26c1.22-3.44,4.48-5.74,8.13-5.74.37,0,.73.02,1.09.07-.77-.9-1.43-1.92-1.95-3.04-1.76-3.79-1.64-8.08.34-11.76l14.93-27.8c2.33-4.34,6.41-7.37,11.22-8.35,1.72-.52,3.47-1.03,5.24-1.51-.29-1.05-.56-2.14-.83-3.29-.03-.13-.06-.27-.09-.4l-12.03,1.73c-.34.05-.69.07-1.04.07-3.12,0-5.86-2.01-6.8-5.01-.94-2.99.15-6.2,2.72-8,.27-.19.56-.36.86-.5l19.45-9.25-.44-10.45c-.12-2.86.9-5.57,2.88-7.63,1.96-2.04,4.69-3.21,7.51-3.21.97,0,1.94.14,2.88.41l6.15,1.77,4.27-3.09c1.79-1.29,3.9-1.98,6.09-1.98,4.29,0,8.09,2.58,9.68,6.56l4.63,11.64,22.03,2.93c.37.05.73.13,1.08.25,3.17,1.04,5.18,4.09,4.89,7.41-.29,3.32-2.8,5.98-6.1,6.45l-13.97,2.01c.02.19.05.37.06.56.22,1.71.37,3.32.44,4.85.75.06,1.49.13,2.22.21,1.73.18,3.34.64,4.78,1.35,1.94.85,3.68,2.06,5.17,3.59l22.06,22.57c2.92,2.99,4.23,7.07,3.59,11.2-.64,4.13-3.12,7.63-6.81,9.59l-19.9,10.59c.2,1.18.46,2.24.79,3.2l5.6,16.14c1.26,3.63,1.37,7.5.33,11.2l-4.92,17.44,15.71,11c2.15,1.5,3.07,4.22,2.28,6.72-.79,2.5-3.1,4.2-5.72,4.2h-37.1Zm-46.47-60.38c0-.08,0-.16-.01-.23-.02-.49-.07-1.02-.14-1.59l-9.38-1.98,9.53,3.8Z"/><rect class="cls-1" width="330" height="330"/></g></svg>