<?xml version="1.0" encoding="UTF-8"?><svg id="Layer_2" xmlns="http://www.w3.org/2000/svg" viewBox="0 0 330 330"><defs><style>.cls-1,.cls-2{fill:none;}.cls-2{stroke:#000;stroke-linecap:round;stroke-miterlimit:10;stroke-width:1.73px;}.cls-3{fill:#6ab2c5;}</style></defs><g id="Layer_6"><path class="cls-3" d="m218.94,118.34l-22.06-22.57c-1.03-1.05-2.2-1.82-3.44-2.35-.8-.42-1.74-.7-2.85-.82-2.56-.27-5.15-.43-7.75-.5.33-2.77.26-6.02-.24-9.84h0c-.22-2.26-.95-4.35-2.07-6.16l21.08-3.04c1.2-.17,1.35-1.85.19-2.22l-25.52-3.39-5.93-14.91c-1.06-2.67-4.35-3.62-6.68-1.94l-6.64,4.8-8.96-2.58c-2.89-.83-5.75,1.41-5.62,4.42l.6,14.42-23.03,10.95c-.99.69-.37,2.25.82,2.07l18.17-2.62c-.06,1.7.13,3.64.65,5.88.81,3.52,1.72,6.44,2.71,8.85-4.08.97-7.94,2.04-11.49,3.12,0,0-.02,0-.02,0-2.99.54-5.77,2.35-7.38,5.36l-14.93,27.8c-2.26,4.2.16,9.39,4.82,10.37l22.22,4.69c.55,2.31.92,4.47,1,6.39.02.43.08.84.19,1.24-.16,1.29-.17,2.61,0,3.96l.55,4.42-32.57-13c-1.38-.55-2.95.16-3.45,1.56l-11.08,31.26,17.71-10.67,34.5,14c6.07,2.46,13.01-.09,16.03-5.9l7.79-14.96,5.95,7.74c1.35,1.76,2.08,3.91,2.08,6.12v26.31c0,1.53,1.24,2.77,2.77,2.77h37.1l-19.2-13.44,6.08-21.54c.7-2.5.63-5.15-.22-7.61l-5.6-16.14c-.9-2.59-1.35-5.49-1.5-8.56l23.46-12.48c4.21-2.24,5.09-7.89,1.75-11.3Zm-90.01,15.58l1.44-2.04c.29.82.58,1.65.87,2.47l-2.31-.43Zm65.71-6.67c.26-1.93.55-3.87.84-5.77l4.11,3.29-4.95,2.48Z"/><line class="cls-2" x1="132.28" y1="83.05" x2="150.28" y2="80.52"/><path class="cls-2" d="m196.17,115.29s-5.04,20.66-2.1,30.45"/><path class="cls-2" d="m138.4,119.19l-8.9,13.83c-.28.44-.05,1.03.46,1.16l13.63,3.39c3.14.8,5.1,3.92,4.45,7.09h0c-.68,3.32-3.95,5.45-7.26,4.71l-13.73-2.99"/><line class="cls-2" x1="164.52" y1="169.82" x2="168.99" y2="161.33"/><path class="cls-2" d="m141.71,95.33s2.85,6.48,5.17,9.67"/><path class="cls-2" d="m183.02,89.9s-.77,8.13-3.53,13.75"/><rect class="cls-1" width="330" height="330"/></g></svg>