<?xml version="1.0" encoding="UTF-8"?><svg id="Layer_2" xmlns="http://www.w3.org/2000/svg" viewBox="0 0 330 330"><defs><style>.cls-1,.cls-2,.cls-3{fill:none;}.cls-2{stroke-linecap:round;}.cls-2,.cls-3{stroke:#000;stroke-miterlimit:10;stroke-width:1.73px;}.cls-4{fill:#fffefe;}</style></defs><g id="Layer_6"><ellipse class="cls-4" cx="161.63" cy="83.88" rx="3.25" ry="4.65" transform="translate(-10.03 23.11) rotate(-7.93)"/><ellipse cx="161.63" cy="83.88" rx="1.31" ry="1.87" transform="translate(-10.03 23.11) rotate(-7.93)"/><ellipse class="cls-4" cx="172.61" cy="82.35" rx="3.25" ry="4.65" transform="translate(-9.71 24.61) rotate(-7.93)"/><ellipse class="cls-3" cx="161.63" cy="83.88" rx="3.25" ry="4.65" transform="translate(-10.03 23.11) rotate(-7.93)"/><ellipse class="cls-3" cx="172.61" cy="82.35" rx="3.25" ry="4.65" transform="translate(-9.71 24.61) rotate(-7.93)"/><line class="cls-2" x1="156.55" y1="76.8" x2="163.62" y2="75.58"/><path class="cls-2" d="m168.06,75.34c-.07-4.18,5.33-5.16,6.75-.98"/><ellipse cx="172.61" cy="82.35" rx="1.31" ry="1.87" transform="translate(-9.71 24.61) rotate(-7.93)"/><path d="m174.65,88.04l30.85-8.51c.42-.12.61.49.21.64l-30.06,10.98c-.62.22-1.31.06-1.75-.42h0c-.85-.9-.43-2.37.76-2.7Z"/><path d="m164.92,90.46l-42.52,6.36c-.38.03-.34.59.03.58l42.66-3.97c.49-.02.94-.27,1.21-.69h0c.66-1.04-.15-2.39-1.38-2.28Z"/><rect class="cls-1" width="330" height="330"/></g></svg>